<svg width="55" height="55" viewBox="0 0 55 55" fill="none" xmlns="http://www.w3.org/2000/svg">
<g id="Blank_image">
<path id="Rectangle Copy 2" d="M15.7862 7.01481C18.0229 3.14064 22.9768 1.81325 26.851 4.05L47.1784 15.7861C51.0526 18.0228 52.38 22.9767 50.1433 26.8509L38.4072 47.1783C36.1704 51.0525 31.2166 52.3799 27.3424 50.1431L7.01492 38.4071C3.14075 36.1703 1.81336 31.2164 4.05012 27.3423L15.7862 7.01481Z" fill="#D6E4FC"/>
<g id="Group 38 Copy 2">
<path id="Rectangle" d="M37.5414 10.9461L37.5422 10.9468L41.5994 14.3869C42.3053 14.9855 42.7123 15.8641 42.7123 16.7895V43.2851C42.7123 45.0248 41.302 46.4351 39.5623 46.4351H14.6C12.8603 46.4351 11.45 45.0248 11.45 43.2851V9.00966C11.45 7.26997 12.8603 5.85967 14.6 5.85967H30.4119C31.1607 5.85967 31.885 6.1264 32.455 6.61204L37.5414 10.9461Z" fill="white" stroke="#0162FF" stroke-width="0.9"/>
<path id="Vector 1" d="M17 32H24.2258M17 27H28.871M17 22H33" stroke="#0162FF" stroke-linecap="round"/>
<path id="Rectangle_2" d="M31.6829 6.68701C31.6829 6.68701 34.2845 8.9431 37.9453 12.0247C41.6062 15.1063 41.9049 15.9441 41.9049 15.9441C41.9049 15.9441 33.8442 17.6491 31.4334 15.5994C29.0227 13.5497 31.6829 6.68701 31.6829 6.68701Z" fill="#CCDCF4"/>
<path id="Path 6" d="M41.9049 16.4219H33.3542C31.3659 16.4219 29.7542 14.8102 29.7542 12.8219V9.91797" stroke="#0162FF" stroke-width="0.9" stroke-linecap="round" stroke-linejoin="round"/>
</g>
<g id="Group 114">
<circle id="Ellipse 1" cx="37" cy="40" r="8" fill="white" stroke="#0162FF" stroke-width="0.9"/>
<g id="Glyphs / Chart - Pie Copy">
<rect width="9" height="9" transform="matrix(-1 0 0 1 41.5 35.5)" fill="white"/>
<g id="Group 116">
<path id="Shape" d="M40.6016 40.4498C40.6016 40.2009 40.3997 39.999 40.1507 39.999C39.9018 39.999 39.6999 40.2009 39.6999 40.4498V41.8023C39.6999 42.0513 39.4981 42.2531 39.2491 42.2531L34.7524 42.2532C34.5034 42.2532 34.3016 42.0513 34.3016 41.8024V40.4499C34.3016 40.2009 34.0997 39.9991 33.8507 39.9991C33.6018 39.9991 33.3999 40.2009 33.3999 40.4499V41.8024C33.3999 42.5493 34.0054 43.1548 34.7524 43.1548L39.2491 43.1548C39.996 43.1548 40.6016 42.5492 40.6016 41.8023V40.4498Z" fill="#0162FF"/>
<path id="Vector" d="M39.1437 38.9728C38.9677 39.1488 38.6822 39.1488 38.5062 38.9728L37.5093 37.9391V40.2014C37.5093 40.3469 37.4498 40.6741 37.0217 40.6741C36.5935 40.6741 36.5498 40.3469 36.5498 40.2014V37.9391L35.5372 38.9728C35.3611 39.1488 35.0757 39.1488 34.8996 38.9728C34.7236 38.7967 34.7236 38.5113 34.8996 38.3352L36.7029 36.5319C36.879 36.3559 37.1644 36.3559 37.3405 36.5319L39.1437 38.3352C39.3198 38.5113 39.3198 38.7967 39.1437 38.9728Z" fill="#0162FF"/>
</g>
</g>
</g>
</g>
</svg>
