<svg width="50" height="50" viewBox="0 0 50 50" fill="none" xmlns="http://www.w3.org/2000/svg">
<g id="Group 2 Copy">
<g id="img-white labeling">
<path id="Rectangle Copy 2" d="M13.8988 7.62534C16.3302 3.41398 21.7153 1.97106 25.9266 4.40249L42.3747 13.8988C46.586 16.3302 48.0289 21.7153 45.5975 25.9266L36.1012 42.3747C33.6698 46.586 28.2847 48.0289 24.0734 45.5975L7.62534 36.1012C3.41398 33.6698 1.97106 28.2848 4.40249 24.0734L13.8988 7.62534Z" fill="#D6E4FC"/>
<g id="Group 112">
<path id="Rectangle Copy 87" d="M26.3113 8.39472H26.3115L39.3066 8.39159C40.9573 8.39119 42.2957 9.72925 42.2957 11.38V24.1895V38.4513C42.2957 40.1017 40.9578 41.4396 39.3073 41.4396H25.887H12.2351C10.5847 41.4396 9.24676 40.1018 9.24669 38.4514L9.24615 25.0383V25.0382L9.24669 11.3798C9.24676 9.72914 10.5851 8.39116 12.2357 8.39154L26.3113 8.39472Z" fill="white" stroke="#0565FF"/>
<path id="Path 8" fill-rule="evenodd" clip-rule="evenodd" d="M29.5007 9.49792H39.2711C40.3757 9.49792 41.2711 10.3934 41.2711 11.4979V19.7101L29.5007 9.49792Z" fill="#CCDCF4"/>
<g id="pie-chart-01" clip-path="url(#clip0_5416_3266)">
<path id="Icon" d="M32.1403 27.5933C31.7161 28.5963 31.0528 29.4801 30.2082 30.1675C29.3636 30.8549 28.3634 31.325 27.2952 31.5365C26.227 31.7481 25.1232 31.6948 24.0804 31.3812C23.0375 31.0676 22.0873 30.5034 21.3129 29.7378C20.5385 28.9722 19.9635 28.0285 19.638 26.9893C19.3126 25.9501 19.2466 24.847 19.446 23.7764C19.6454 22.7059 20.1039 21.7004 20.7816 20.848C21.4593 19.9956 22.3355 19.3222 23.3336 18.8867M32.1595 22.4488C32.4263 23.0931 32.5901 23.7742 32.6456 24.4672C32.6593 24.6384 32.6662 24.724 32.6322 24.8011C32.6038 24.8656 32.5475 24.9265 32.4856 24.96C32.4115 25 32.3188 25 32.1336 25H26.5336C26.3469 25 26.2536 25 26.1823 24.9637C26.1195 24.9317 26.0686 24.8807 26.0366 24.818C26.0003 24.7467 26.0003 24.6534 26.0003 24.4667V18.8667C26.0003 18.6814 26.0003 18.5888 26.0403 18.5147C26.0738 18.4527 26.1347 18.3965 26.1991 18.3681C26.2762 18.3341 26.3618 18.3409 26.533 18.3547C27.226 18.4102 27.9072 18.5739 28.5515 18.8408C29.3603 19.1758 30.0953 19.6669 30.7143 20.286C31.3334 20.905 31.8244 21.6399 32.1595 22.4488Z" stroke="#0565FF" stroke-linecap="round" stroke-linejoin="round"/>
</g>
</g>
</g>
</g>
<defs>
<clipPath id="clip0_5416_3266">
<rect width="16" height="16" fill="white" transform="translate(18 17)"/>
</clipPath>
</defs>
</svg>
