<?xml version="1.0" encoding="UTF-8"?>
<svg width="60px" height="60px" viewBox="0 0 60 60" version="1.1" xmlns="http://www.w3.org/2000/svg" xmlns:xlink="http://www.w3.org/1999/xlink">
    <title>Create dataset</title>
    <defs>
        <path d="M8.19327699,4.45454545 C8.46941937,4.45454545 8.69327699,4.67840308 8.69327699,4.95454545 L8.69327699,7.95354545 L11.693277,7.95454545 C11.9694194,7.95454545 12.193277,8.17840308 12.193277,8.45454545 C12.193277,8.73068783 11.9694194,8.95454545 11.693277,8.95454545 L8.69327699,8.95354545 L8.69327699,11.9545455 C8.69327699,12.2306878 8.46941937,12.4545455 8.19327699,12.4545455 C7.91713462,12.4545455 7.69327699,12.2306878 7.69327699,11.9545455 L7.69327699,8.95354545 L4.69327699,8.95454545 C4.41713462,8.95454545 4.19327699,8.73068783 4.19327699,8.45454545 C4.19327699,8.17840308 4.41713462,7.95454545 4.69327699,7.95454545 L7.69327699,7.95354545 L7.69327699,4.95454545 C7.69327699,4.67840308 7.91713462,4.45454545 8.19327699,4.45454545 Z" id="path-1"></path>
    </defs>
    <g id="Design_2" stroke="none" stroke-width="1" fill="none" fill-rule="evenodd">
        <g id="Add-dataset-Select-connection-Copy" transform="translate(-441.000000, -295.000000)">
            <g id="Group-10" transform="translate(425.000000, 278.000000)">
                <g id="Create-dataset" transform="translate(16.000000, 17.000000)">
                    <path d="M13.44,7.92054972 L47.293234,7.92054972 C49.8960014,7.92054972 52.0059613,10.0305096 52.0059613,12.633277 L52.0059613,46.486511 C52.0059613,49.0892784 49.8960014,51.1992382 47.293234,51.1992382 L13.44,51.1992382 C10.8372326,51.1992382 8.72727273,49.0892784 8.72727273,46.486511 L8.72727273,12.633277 C8.72727273,10.0305096 10.8372326,7.92054972 13.44,7.92054972 Z" id="Rectangle-Copy-2" fill="#D6E4FC" fill-rule="nonzero" transform="translate(30.366617, 29.559894) rotate(-330.000000) translate(-30.366617, -29.559894) "></path>
                    <g id="Group-38-Copy-2" transform="translate(11.806723, 4.545455)">
                        <path d="M21.7233631,1.95454545 C22.1031333,1.95454545 22.4704346,2.09008962 22.7591674,2.33678542 L22.7591674,2.33678542 L28.7280479,7.43664681 L33.7215198,11.6820936 C34.0778629,11.9850563 34.2832198,12.4291958 34.2832198,12.896921 L34.2832198,12.896921 L34.2832198,44.0872727 C34.2832198,44.5275943 34.1047442,44.9262307 33.8161882,45.2147866 C33.5276322,45.5033426 33.1289959,45.6818182 32.6886743,45.6818182 L32.6886743,45.6818182 L2.28782245,45.6818182 C1.84750088,45.6818182 1.44886452,45.5033426 1.16030854,45.2147866 C0.871752573,44.9262307 0.693276994,44.5275943 0.693276994,44.0872727 L0.693276994,44.0872727 L0.693276994,3.54909091 C0.693276994,3.10876934 0.871752573,2.71013298 1.16030854,2.42157701 C1.44886452,2.13302103 1.84750088,1.95454545 2.28782245,1.95454545 L2.28782245,1.95454545 Z" id="Rectangle" stroke="#0162FF" fill="#FFFFFF" fill-rule="nonzero"></path>
                        <g id="Group" transform="translate(19.000000, 0.000000)">
                            <circle id="Oval-Copy" stroke="#0162FF" fill="#FFFFFF" fill-rule="nonzero" cx="8.19327699" cy="8.45454545" r="7.5"></circle>
                            <mask id="mask-2" fill="white">
                                <use xlink:href="#path-1"></use>
                            </mask>
                            <use id="Mask" fill="#000000" fill-rule="nonzero" xlink:href="#path-1"></use>
                        </g>
                    </g>
                    <g id="Datasource" transform="translate(22.624905, 25.090909)" fill="#0162FF">
                        <path d="M12.3030303,0.636363636 C13.5916947,0.636363636 14.6363636,1.68103255 14.6363636,2.96969697 L14.6363636,12.3030303 C14.6363636,13.5916947 13.5916947,14.6363636 12.3030303,14.6363636 L2.96969697,14.6363636 C1.68103255,14.6363636 0.636363636,13.5916947 0.636363636,12.3030303 L0.636363636,2.96969697 C0.636363636,1.68103255 1.68103255,0.636363636 2.96969697,0.636363636 L12.3030303,0.636363636 Z M13.4693636,7.95436364 L1.80236364,7.95436364 L1.8030303,12.3030303 C1.8030303,12.9473625 2.32536476,13.469697 2.96969697,13.469697 L12.3030303,13.469697 C12.9473625,13.469697 13.469697,12.9473625 13.469697,12.3030303 L13.4693636,7.95436364 Z M4.45454545,9.54545455 C5.15745332,9.54545455 5.72727273,10.115274 5.72727273,10.8181818 C5.72727273,11.5210897 5.15745332,12.0909091 4.45454545,12.0909091 C3.75163759,12.0909091 3.18181818,11.5210897 3.18181818,10.8181818 C3.18181818,10.115274 3.75163759,9.54545455 4.45454545,9.54545455 Z M12.3030303,1.8030303 L2.96969697,1.8030303 C2.32536476,1.8030303 1.8030303,2.32536476 1.8030303,2.96969697 L1.80236364,6.68136364 L13.4693636,6.68136364 L13.469697,2.96969697 C13.469697,2.32536476 12.9473625,1.8030303 12.3030303,1.8030303 Z M4.45454545,3.18181818 C5.15745332,3.18181818 5.72727273,3.75163759 5.72727273,4.45454545 C5.72727273,5.15745332 5.15745332,5.72727273 4.45454545,5.72727273 C3.75163759,5.72727273 3.18181818,5.15745332 3.18181818,4.45454545 C3.18181818,3.75163759 3.75163759,3.18181818 4.45454545,3.18181818 Z" id="Combined-Shape"></path>
                    </g>
                </g>
            </g>
        </g>
    </g>
</svg>