<svg width="50" height="50" viewBox="0 0 50 50" fill="none" xmlns="http://www.w3.org/2000/svg">
<g clip-path="url(#clip0_2001_867)">
<path d="M24.85 2.04995L45.178 13.786C46.0992 14.3178 46.9067 15.0259 47.5543 15.8698C48.2019 16.7137 48.6769 17.6769 48.9522 18.7044C49.2275 19.7318 49.2978 20.8035 49.1589 21.8581C49.0201 22.9128 48.6749 23.9297 48.143 24.851L36.407 45.178C35.8752 46.0992 35.1671 46.9067 34.3232 47.5542C33.4793 48.2018 32.5161 48.6768 31.4886 48.9522C30.4611 49.2275 29.3895 49.2977 28.3348 49.1589C27.2802 49.02 26.2632 48.6748 25.342 48.143L5.015 36.407C4.09376 35.8751 3.2863 35.167 2.63872 34.3231C1.99114 33.4792 1.51612 32.516 1.2408 31.4885C0.96547 30.4611 0.895223 29.3894 1.03407 28.3348C1.17291 27.2801 1.51813 26.2632 2.05 25.342L13.786 5.01495C14.3178 4.09371 15.0259 3.28625 15.8698 2.63867C16.7137 1.99109 17.6769 1.51608 18.7044 1.24075C19.7319 0.965421 20.8036 0.895173 21.8582 1.03402C22.9128 1.17286 23.9288 1.51808 24.85 2.04995Z" fill="#D6E4FC"/>
<path d="M12.42 3.85999C11.5846 3.85999 10.7834 4.19186 10.1926 4.7826C9.60187 5.37334 9.27 6.17455 9.27 7.00999V41.285C9.27 42.1204 9.60187 42.9216 10.1926 43.5124C10.7834 44.1031 11.5846 44.435 12.42 44.435H37.382C38.2174 44.435 39.0186 44.1031 39.6094 43.5124C40.2001 42.9216 40.532 42.1204 40.532 41.285V14.79C40.532 14.3327 40.4325 13.8808 40.2403 13.4658C40.0481 13.0509 39.7678 12.6827 39.419 12.387L35.361 8.94699L30.275 4.61199C29.705 4.12648 28.9807 3.85988 28.232 3.85999H12.42Z" fill="white" stroke="#0162FF"/>
<path d="M29.6831 4.68701C31.7576 6.48135 33.8449 8.26072 35.9451 10.025C38.3851 12.079 39.8332 13.0797 39.9511 13.9685C32.4932 13.5058 31.0646 14.438 29.4566 13.072C27.8496 11.706 27.9091 9.26201 29.6831 4.68701Z" fill="#CCDCF4"/>
<path d="M39.9051 13.422H31.3551C30.4003 13.422 29.4847 13.0427 28.8095 12.3676C28.1344 11.6924 27.7551 10.7767 27.7551 9.82197V6.91797" stroke="#0162FF" stroke-linecap="round" stroke-linejoin="round"/>
<rect x="13" y="17" width="22" height="4" rx="1" fill="white" stroke="#0565FF"/>
<rect x="12.4048" y="26" width="24.9927" height="14" rx="1" stroke="#0565FF" stroke-width="0.4" stroke-dasharray="1 1"/>
<path d="M16.4048 30H23.3975" stroke="#0565FF" stroke-linecap="round"/>
<path d="M16.4048 33H33.3975" stroke="#0565FF" stroke-linecap="round"/>
<path d="M16.4048 36H30.3975" stroke="#0565FF" stroke-linecap="round"/>
</g>
<defs>
<clipPath id="clip0_2001_867">
<rect width="50" height="50" fill="white"/>
</clipPath>
</defs>
</svg>
