<svg width="64" height="64" viewBox="0 0 64 64" fill="none" xmlns="http://www.w3.org/2000/svg">
<path d="M5.78089 51.9587H3.89131L3.88112 51.0266H5.53132C5.80975 51.0266 6.04574 50.9858 6.23928 50.9044C6.43622 50.8195 6.58562 50.6989 6.68748 50.5427C6.78935 50.3832 6.84028 50.1913 6.84028 49.9672C6.84028 49.7193 6.79274 49.5173 6.69767 49.3611C6.6026 49.2049 6.45659 49.0912 6.25965 49.0199C6.06611 48.9486 5.81824 48.9129 5.51604 48.9129H4.2784V55.31H3V47.8943H5.51604C5.9235 47.8943 6.28682 47.9333 6.60599 48.0114C6.92856 48.0895 7.2019 48.2117 7.426 48.3781C7.65349 48.5411 7.82497 48.7482 7.94041 48.9995C8.05925 49.2508 8.11867 49.5496 8.11867 49.8959C8.11867 50.2015 8.04567 50.4816 7.89967 50.7363C7.75366 50.9875 7.53805 51.193 7.25283 51.3526C6.96761 51.5121 6.61278 51.6072 6.18835 51.6378L5.78089 51.9587ZM5.72487 55.31H3.48895L4.06448 54.2964H5.72487C6.01348 54.2964 6.25456 54.2489 6.4481 54.1538C6.64164 54.0554 6.78595 53.9212 6.88102 53.7515C6.97949 53.5783 7.02873 53.3763 7.02873 53.1454C7.02873 52.9043 6.98628 52.6955 6.9014 52.5189C6.81651 52.3389 6.68239 52.2014 6.49903 52.1064C6.31568 52.0079 6.0763 51.9587 5.78089 51.9587H4.34461L4.35479 51.0266H6.224L6.51431 51.378C6.92177 51.3916 7.25622 51.4816 7.51768 51.648C7.78252 51.8143 7.97946 52.03 8.10849 52.2948C8.23752 52.5597 8.30203 52.8449 8.30203 53.1505C8.30203 53.6224 8.19847 54.018 7.99134 54.3372C7.78762 54.6564 7.49391 54.8991 7.11022 55.0655C6.72653 55.2285 6.26475 55.31 5.72487 55.31Z" fill="#283A5E"/>
<path d="M9.04443 52.6157V52.4985C9.04443 52.1013 9.10216 51.7329 9.2176 51.3933C9.33305 51.0504 9.49943 50.7533 9.71674 50.502C9.93744 50.2473 10.2057 50.0504 10.5215 49.9112C10.8406 49.7686 11.2006 49.6973 11.6012 49.6973C12.0053 49.6973 12.3652 49.7686 12.681 49.9112C13.0002 50.0504 13.2701 50.2473 13.4908 50.502C13.7115 50.7533 13.8796 51.0504 13.995 51.3933C14.1105 51.7329 14.1682 52.1013 14.1682 52.4985V52.6157C14.1682 53.0129 14.1105 53.3814 13.995 53.7209C13.8796 54.0604 13.7115 54.3576 13.4908 54.6122C13.2701 54.8635 13.0019 55.0604 12.6861 55.203C12.3703 55.3422 12.0121 55.4118 11.6114 55.4118C11.2073 55.4118 10.8457 55.3422 10.5266 55.203C10.2108 55.0604 9.94254 54.8635 9.72183 54.6122C9.50112 54.3576 9.33305 54.0604 9.2176 53.7209C9.10216 53.3814 9.04443 53.0129 9.04443 52.6157ZM10.2719 52.4985V52.6157C10.2719 52.8635 10.2974 53.0978 10.3483 53.3185C10.3992 53.5392 10.479 53.7328 10.5877 53.8992C10.6963 54.0655 10.8355 54.1963 11.0053 54.2913C11.1751 54.3864 11.3771 54.434 11.6114 54.434C11.8389 54.434 12.0358 54.3864 12.2022 54.2913C12.372 54.1963 12.5112 54.0655 12.6199 53.8992C12.7285 53.7328 12.8083 53.5392 12.8592 53.3185C12.9136 53.0978 12.9407 52.8635 12.9407 52.6157V52.4985C12.9407 52.2541 12.9136 52.0232 12.8592 51.8059C12.8083 51.5852 12.7268 51.3899 12.6148 51.2201C12.5061 51.0504 12.3669 50.9179 12.1971 50.8229C12.0308 50.7244 11.8321 50.6752 11.6012 50.6752C11.3703 50.6752 11.17 50.7244 11.0002 50.8229C10.8338 50.9179 10.6963 51.0504 10.5877 51.2201C10.479 51.3899 10.3992 51.5852 10.3483 51.8059C10.2974 52.0232 10.2719 52.2541 10.2719 52.4985Z" fill="#283A5E"/>
<path d="M16.3214 47.4868V55.31H15.0889V47.4868H16.3214Z" fill="#283A5E"/>
<path d="M20.8379 54.1691V47.4868H22.0705V55.31H20.955L20.8379 54.1691ZM17.2523 52.6157V52.5087C17.2523 52.0911 17.3015 51.7108 17.4 51.3678C17.4984 51.0215 17.6411 50.7244 17.8278 50.4765C18.0146 50.2253 18.2421 50.0334 18.5103 49.901C18.7785 49.7652 19.0807 49.6973 19.4169 49.6973C19.7496 49.6973 20.0417 49.7618 20.2929 49.8908C20.5442 50.0198 20.7581 50.2049 20.9347 50.446C21.1112 50.6837 21.2521 50.9689 21.3574 51.3016C21.4627 51.631 21.5374 51.9977 21.5815 52.4018V52.743C21.5374 53.1369 21.4627 53.4968 21.3574 53.8228C21.2521 54.1487 21.1112 54.4306 20.9347 54.6682C20.7581 54.9059 20.5425 55.0893 20.2878 55.2183C20.0366 55.3473 19.7429 55.4118 19.4067 55.4118C19.0739 55.4118 18.7734 55.3422 18.5052 55.203C18.2404 55.0638 18.0146 54.8686 17.8278 54.6173C17.6411 54.366 17.4984 54.0706 17.4 53.7311C17.3015 53.3881 17.2523 53.0163 17.2523 52.6157ZM18.4797 52.5087V52.6157C18.4797 52.8669 18.5018 53.1012 18.546 53.3185C18.5935 53.5358 18.6665 53.7277 18.765 53.8941C18.8634 54.0571 18.9908 54.1861 19.147 54.2812C19.3065 54.3728 19.4967 54.4187 19.7174 54.4187C19.9958 54.4187 20.225 54.3576 20.405 54.2353C20.5849 54.1131 20.7258 53.9484 20.8277 53.7413C20.933 53.5308 21.0043 53.2965 21.0416 53.0384V52.1165C21.0213 51.9162 20.9788 51.7295 20.9143 51.5563C20.8532 51.3831 20.77 51.232 20.6647 51.103C20.5595 50.9706 20.4287 50.8687 20.2725 50.7974C20.1198 50.7227 19.9381 50.6854 19.7276 50.6854C19.5035 50.6854 19.3133 50.7329 19.1571 50.828C19.0009 50.923 18.8719 51.0538 18.7701 51.2201C18.6716 51.3865 18.5986 51.5801 18.551 51.8008C18.5035 52.0215 18.4797 52.2575 18.4797 52.5087Z" fill="#283A5E"/>
<path d="M25.6944 47.8943H28.3174C28.8811 47.8943 29.3615 47.9792 29.7588 48.1489C30.1561 48.3187 30.46 48.57 30.6705 48.9027C30.8844 49.2321 30.9913 49.6395 30.9913 50.1251C30.9913 50.4952 30.9234 50.8212 30.7876 51.103C30.6518 51.3848 30.46 51.6225 30.2121 51.816C29.9642 52.0062 29.6688 52.1539 29.3259 52.2592L28.9388 52.4476H26.5806L26.5704 51.4341H28.3378C28.6434 51.4341 28.898 51.3797 29.1018 51.2711C29.3055 51.1624 29.4583 51.0147 29.5602 50.828C29.6654 50.6378 29.718 50.4239 29.718 50.1862C29.718 49.9282 29.6671 49.7041 29.5652 49.5139C29.4668 49.3204 29.314 49.1727 29.1069 49.0708C28.8997 48.9655 28.6366 48.9129 28.3174 48.9129H26.9728V55.31H25.6944V47.8943ZM29.9269 55.31L28.185 51.979L29.5245 51.9739L31.2918 55.2438V55.31H29.9269Z" fill="#283A5E"/>
<path d="M34.3822 55.4118C33.9748 55.4118 33.6064 55.3456 33.277 55.2132C32.951 55.0774 32.6726 54.8889 32.4417 54.6479C32.2142 54.4068 32.0393 54.1233 31.9171 53.7973C31.7949 53.4713 31.7337 53.1199 31.7337 52.743V52.5393C31.7337 52.1081 31.7966 51.7176 31.9222 51.3678C32.0478 51.0181 32.2227 50.7193 32.4468 50.4714C32.6709 50.2202 32.9357 50.0283 33.2413 49.8959C33.5469 49.7635 33.878 49.6973 34.2345 49.6973C34.6284 49.6973 34.973 49.7635 35.2684 49.8959C35.5638 50.0283 35.8083 50.2151 36.0019 50.4562C36.1988 50.6938 36.3448 50.9774 36.4399 51.3067C36.5383 51.6361 36.5876 51.9994 36.5876 52.3967V52.9213H32.3297V52.0401H35.3754V51.9434C35.3686 51.7227 35.3245 51.5155 35.243 51.322C35.1649 51.1285 35.0443 50.9723 34.8814 50.8534C34.7184 50.7346 34.5011 50.6752 34.2294 50.6752C34.0257 50.6752 33.844 50.7193 33.6845 50.8076C33.5283 50.8925 33.3975 51.0164 33.2923 51.1794C33.187 51.3424 33.1055 51.5393 33.0478 51.7702C32.9935 51.9977 32.9663 52.2541 32.9663 52.5393V52.743C32.9663 52.9841 32.9986 53.2082 33.0631 53.4153C33.131 53.619 33.2295 53.7973 33.3585 53.9501C33.4875 54.1029 33.6437 54.2234 33.8271 54.3117C34.0104 54.3966 34.2192 54.439 34.4535 54.439C34.7489 54.439 35.0121 54.3796 35.243 54.2608C35.4739 54.1419 35.6742 53.9739 35.844 53.7566L36.4908 54.383C36.372 54.5562 36.2175 54.7226 36.0273 54.8822C35.8372 55.0383 35.6046 55.1657 35.3296 55.2641C35.0579 55.3626 34.7421 55.4118 34.3822 55.4118Z" fill="#283A5E"/>
<path d="M38.588 50.8585V57.4288H37.3605V49.7991H38.4912L38.588 50.8585ZM42.1787 52.5036V52.6106C42.1787 53.0112 42.1312 53.3831 42.0361 53.726C41.9444 54.0655 41.8069 54.3626 41.6236 54.6173C41.4436 54.8686 41.2212 55.0638 40.9563 55.203C40.6915 55.3422 40.3859 55.4118 40.0396 55.4118C39.6966 55.4118 39.3961 55.349 39.1381 55.2234C38.8834 55.0944 38.6678 54.9127 38.4912 54.6784C38.3147 54.4441 38.1721 54.1691 38.0634 53.8533C37.9581 53.5342 37.8834 53.1844 37.8393 52.8041V52.3916C37.8834 51.9875 37.9581 51.6208 38.0634 51.2914C38.1721 50.9621 38.3147 50.6786 38.4912 50.4409C38.6678 50.2032 38.8834 50.0198 39.1381 49.8908C39.3927 49.7618 39.6898 49.6973 40.0294 49.6973C40.3757 49.6973 40.683 49.7652 40.9512 49.901C41.2195 50.0334 41.4453 50.2236 41.6286 50.4714C41.812 50.7159 41.9495 51.0113 42.0412 51.3577C42.1329 51.7006 42.1787 52.0826 42.1787 52.5036ZM40.9512 52.6106V52.5036C40.9512 52.249 40.9275 52.013 40.8799 51.7957C40.8324 51.575 40.7577 51.3814 40.6558 51.215C40.554 51.0487 40.4233 50.9196 40.2637 50.828C40.1075 50.7329 39.919 50.6854 39.6983 50.6854C39.481 50.6854 39.2943 50.7227 39.1381 50.7974C38.9819 50.8687 38.8512 50.9689 38.7459 51.0979C38.6406 51.2269 38.5591 51.378 38.5014 51.5512C38.4437 51.721 38.4029 51.906 38.3792 52.1064V53.0944C38.4199 53.3389 38.4895 53.563 38.588 53.7667C38.6865 53.9705 38.8257 54.1335 39.0056 54.2557C39.189 54.3745 39.4233 54.434 39.7085 54.434C39.9292 54.434 40.1177 54.3864 40.2739 54.2913C40.43 54.1963 40.5574 54.0655 40.6558 53.8992C40.7577 53.7294 40.8324 53.5342 40.8799 53.3134C40.9275 53.0927 40.9512 52.8585 40.9512 52.6106Z" fill="#283A5E"/>
<path d="M42.7989 52.6157V52.4985C42.7989 52.1013 42.8566 51.7329 42.9721 51.3933C43.0875 51.0504 43.2539 50.7533 43.4712 50.502C43.6919 50.2473 43.9601 50.0504 44.2759 49.9112C44.5951 49.7686 44.955 49.6973 45.3557 49.6973C45.7597 49.6973 46.1197 49.7686 46.4354 49.9112C46.7546 50.0504 47.0245 50.2473 47.2453 50.502C47.466 50.7533 47.634 51.0504 47.7495 51.3933C47.8649 51.7329 47.9227 52.1013 47.9227 52.4985V52.6157C47.9227 53.0129 47.8649 53.3814 47.7495 53.7209C47.634 54.0604 47.466 54.3576 47.2453 54.6122C47.0245 54.8635 46.7563 55.0604 46.4405 55.203C46.1247 55.3422 45.7665 55.4118 45.3659 55.4118C44.9618 55.4118 44.6002 55.3422 44.281 55.203C43.9652 55.0604 43.697 54.8635 43.4763 54.6122C43.2556 54.3576 43.0875 54.0604 42.9721 53.7209C42.8566 53.3814 42.7989 53.0129 42.7989 52.6157ZM44.0263 52.4985V52.6157C44.0263 52.8635 44.0518 53.0978 44.1027 53.3185C44.1537 53.5392 44.2335 53.7328 44.3421 53.8992C44.4508 54.0655 44.59 54.1963 44.7598 54.2913C44.9295 54.3864 45.1316 54.434 45.3659 54.434C45.5934 54.434 45.7903 54.3864 45.9567 54.2913C46.1264 54.1963 46.2657 54.0655 46.3743 53.8992C46.483 53.7328 46.5628 53.5392 46.6137 53.3185C46.668 53.0978 46.6952 52.8635 46.6952 52.6157V52.4985C46.6952 52.2541 46.668 52.0232 46.6137 51.8059C46.5628 51.5852 46.4813 51.3899 46.3692 51.2201C46.2606 51.0504 46.1214 50.9179 45.9516 50.8229C45.7852 50.7244 45.5866 50.6752 45.3557 50.6752C45.1248 50.6752 44.9244 50.7244 44.7547 50.8229C44.5883 50.9179 44.4508 51.0504 44.3421 51.2201C44.2335 51.3899 44.1537 51.5852 44.1027 51.8059C44.0518 52.0232 44.0263 52.2541 44.0263 52.4985Z" fill="#283A5E"/>
<path d="M49.9944 50.8483V55.31H48.7669V49.7991H49.9384L49.9944 50.8483ZM51.6802 49.7635L51.6701 50.9044C51.5953 50.8908 51.5139 50.8806 51.4256 50.8738C51.3407 50.867 51.2558 50.8636 51.1709 50.8636C50.9604 50.8636 50.7753 50.8942 50.6158 50.9553C50.4562 51.013 50.322 51.0979 50.2134 51.21C50.1081 51.3186 50.0266 51.451 49.9689 51.6072C49.9112 51.7634 49.8772 51.9383 49.8671 52.1318L49.5869 52.1522C49.5869 51.8059 49.6209 51.485 49.6888 51.1896C49.7567 50.8942 49.8586 50.6344 49.9944 50.4103C50.1336 50.1862 50.3068 50.0113 50.5139 49.8857C50.7244 49.7601 50.9672 49.6973 51.2422 49.6973C51.3169 49.6973 51.3967 49.7041 51.4816 49.7176C51.5699 49.7312 51.6361 49.7465 51.6802 49.7635Z" fill="#283A5E"/>
<path d="M55.0405 49.7991V50.6955H51.9337V49.7991H55.0405ZM52.8301 48.4494H54.0576V53.7871C54.0576 53.9569 54.0813 54.0876 54.1289 54.1793C54.1798 54.2676 54.2494 54.327 54.3377 54.3576C54.426 54.3881 54.5295 54.4034 54.6484 54.4034C54.7333 54.4034 54.8147 54.3983 54.8928 54.3881C54.9709 54.3779 55.0338 54.3677 55.0813 54.3576L55.0864 55.2947C54.9845 55.3253 54.8657 55.3524 54.7299 55.3762C54.5974 55.4 54.4446 55.4118 54.2715 55.4118C53.9896 55.4118 53.7401 55.3626 53.5228 55.2641C53.3055 55.1623 53.1357 54.9976 53.0134 54.7701C52.8912 54.5426 52.8301 54.2404 52.8301 53.8635V48.4494Z" fill="#283A5E"/>
<path d="M58.8898 53.8177C58.8898 53.6954 58.8593 53.5851 58.7981 53.4866C58.737 53.3848 58.6199 53.2931 58.4467 53.2116C58.2769 53.1301 58.0257 53.0554 57.6929 52.9875C57.4009 52.923 57.1327 52.8466 56.8882 52.7583C56.6471 52.6666 56.44 52.5563 56.2668 52.4272C56.0936 52.2982 55.9595 52.1454 55.8644 51.9688C55.7694 51.7923 55.7218 51.5885 55.7218 51.3577C55.7218 51.1336 55.7711 50.9213 55.8695 50.721C55.968 50.5207 56.1089 50.3441 56.2923 50.1913C56.4756 50.0385 56.698 49.918 56.9595 49.8297C57.2243 49.7414 57.5197 49.6973 57.8457 49.6973C58.3075 49.6973 58.7031 49.7754 59.0324 49.9316C59.3652 50.0844 59.6198 50.2932 59.7964 50.558C59.973 50.8195 60.0612 51.1149 60.0612 51.4442H58.8338C58.8338 51.2982 58.7964 51.1624 58.7217 51.0368C58.6504 50.9078 58.5418 50.8042 58.3958 50.7261C58.2498 50.6446 58.0664 50.6039 57.8457 50.6039C57.6352 50.6039 57.4603 50.6378 57.3211 50.7057C57.1853 50.7702 57.0834 50.8551 57.0155 50.9604C56.951 51.0656 56.9187 51.1811 56.9187 51.3067C56.9187 51.3984 56.9357 51.4816 56.9697 51.5563C57.007 51.6276 57.0681 51.6938 57.153 51.7549C57.2379 51.8126 57.3534 51.867 57.4994 51.9179C57.6488 51.9688 57.8355 52.0181 58.0596 52.0656C58.4807 52.1539 58.8423 52.2676 59.1445 52.4069C59.4501 52.5427 59.6843 52.7192 59.8473 52.9365C60.0103 53.1505 60.0918 53.4221 60.0918 53.7515C60.0918 53.9959 60.0392 54.22 59.9339 54.4238C59.8321 54.6241 59.6827 54.799 59.4857 54.9484C59.2888 55.0944 59.0528 55.2081 58.7778 55.2896C58.5061 55.3711 58.2005 55.4118 57.861 55.4118C57.3618 55.4118 56.9391 55.3236 56.5928 55.147C56.2464 54.967 55.9833 54.7378 55.8033 54.4594C55.6268 54.1776 55.5385 53.8856 55.5385 53.5834H56.7252C56.7388 53.8109 56.8016 53.9925 56.9136 54.1284C57.0291 54.2608 57.1717 54.3576 57.3415 54.4187C57.5146 54.4764 57.6929 54.5053 57.8763 54.5053C58.097 54.5053 58.282 54.4764 58.4314 54.4187C58.5808 54.3576 58.6946 54.2761 58.7727 54.1742C58.8508 54.0689 58.8898 53.9501 58.8898 53.8177Z" fill="#283A5E"/>
<path d="M36.9316 11.694L28.8474 11.9127C27.9142 11.9362 27.0307 12.2642 26.337 12.8422C23.7359 14.9978 17.1546 20.8009 14.7268 28.3144C13.1248 33.2739 17.2702 38.2413 22.8275 38.2413H42.0513C42.5137 38.2413 42.7202 37.7102 42.3733 37.429C40.152 35.6405 37.5179 32.446 45.1396 25.2059C54.0331 16.7629 46.2875 11.5222 36.9316 11.694ZM33.645 29.1969C33.6037 29.3141 33.4799 29.3844 33.3478 29.3844H22.9762C22.2908 29.3844 21.8119 28.7518 22.0431 28.1504C22.3156 27.4553 22.745 26.5805 23.3643 25.737H35.5856C34.6442 26.8304 34.0744 28.0957 33.645 29.1969ZM40.2594 19.9808C39.9126 20.5744 39.4171 21.1914 38.9051 21.7615H26.0563C26.8242 20.6134 27.9886 19.3403 28.9795 18.4812C29.252 18.2469 29.5988 18.1141 29.9704 18.1141H37.716C40.1108 18.1141 40.7466 19.1373 40.2594 19.9808Z" fill="#FF4800"/>
</svg>
